<mxfile host="app.diagrams.net" modified="2024-03-21T07:58:20.411Z" agent="Mozilla/5.0 (Windows NT 10.0; Win64; x64) AppleWebKit/537.36 (KHTML, like Gecko) Chrome/120.0.0.0 Safari/537.36" etag="ZdsWFor0DpgPR8_y-JkK" version="24.0.4" type="github">
  <diagram name="第 1 页" id="XxKEUwlq-gYw5El6zGgm">
    <mxGraphModel dx="1434" dy="746" grid="1" gridSize="10" guides="1" tooltips="1" connect="1" arrows="1" fold="1" page="1" pageScale="1" pageWidth="1169" pageHeight="827" math="0" shadow="0">
      <root>
        <mxCell id="0" />
        <mxCell id="1" parent="0" />
        <mxCell id="TacVt2jKOgaLHGXAYxJc-1" style="edgeStyle=none;rounded=0;orthogonalLoop=1;jettySize=auto;html=1;entryX=0;entryY=0.5;entryDx=0;entryDy=0;fontSize=14;" edge="1" parent="1" source="TacVt2jKOgaLHGXAYxJc-2" target="TacVt2jKOgaLHGXAYxJc-5">
          <mxGeometry relative="1" as="geometry" />
        </mxCell>
        <mxCell id="TacVt2jKOgaLHGXAYxJc-2" value="RTL&lt;br style=&quot;font-size: 14px;&quot;&gt;code" style="shape=note;whiteSpace=wrap;html=1;backgroundOutline=1;darkOpacity=0.05;size=20;fontSize=14;fillColor=#f5f5f5;strokeColor=#666666;fontStyle=1;gradientColor=#b3b3b3;" vertex="1" parent="1">
          <mxGeometry x="27" y="76" width="80" height="90" as="geometry" />
        </mxCell>
        <mxCell id="TacVt2jKOgaLHGXAYxJc-3" value="RISCV&lt;br&gt;GCC" style="label;whiteSpace=wrap;html=1;image=img/clipart/Gear_128x128.png;align=center;fontFamily=Times New Roman;fontSize=14;fillColor=#e6d0de;strokeColor=#996185;gradientColor=#d5739d;" vertex="1" parent="1">
          <mxGeometry x="367" y="371" width="110" height="60" as="geometry" />
        </mxCell>
        <mxCell id="TacVt2jKOgaLHGXAYxJc-4" style="edgeStyle=orthogonalEdgeStyle;rounded=0;orthogonalLoop=1;jettySize=auto;html=1;fontSize=14;" edge="1" parent="1" source="TacVt2jKOgaLHGXAYxJc-5" target="TacVt2jKOgaLHGXAYxJc-29">
          <mxGeometry relative="1" as="geometry" />
        </mxCell>
        <mxCell id="TacVt2jKOgaLHGXAYxJc-5" value="ZOLON工具" style="swimlane;fontSize=15;fillColor=#dae8fc;strokeColor=#6c8ebf;gradientColor=#7ea6e0;" vertex="1" parent="1">
          <mxGeometry x="147" y="31" width="410" height="180" as="geometry" />
        </mxCell>
        <mxCell id="TacVt2jKOgaLHGXAYxJc-6" value="语法解析" style="rounded=1;whiteSpace=wrap;html=1;fontSize=15;fillColor=#d5e8d4;strokeColor=#82b366;" vertex="1" parent="TacVt2jKOgaLHGXAYxJc-5">
          <mxGeometry x="20" y="50" width="70" height="40" as="geometry" />
        </mxCell>
        <mxCell id="TacVt2jKOgaLHGXAYxJc-7" value="AST优化" style="rounded=1;whiteSpace=wrap;html=1;fontSize=15;fillColor=#d5e8d4;strokeColor=#82b366;" vertex="1" parent="TacVt2jKOgaLHGXAYxJc-5">
          <mxGeometry x="20" y="120" width="70" height="40" as="geometry" />
        </mxCell>
        <mxCell id="TacVt2jKOgaLHGXAYxJc-8" value="" style="endArrow=classic;html=1;rounded=0;horizontal=0;fontSize=15;" edge="1" parent="TacVt2jKOgaLHGXAYxJc-5" source="TacVt2jKOgaLHGXAYxJc-6" target="TacVt2jKOgaLHGXAYxJc-7">
          <mxGeometry width="50" height="50" relative="1" as="geometry">
            <mxPoint x="100" y="170" as="sourcePoint" />
            <mxPoint x="250" y="60" as="targetPoint" />
          </mxGeometry>
        </mxCell>
        <mxCell id="TacVt2jKOgaLHGXAYxJc-9" value="有向图建模" style="rounded=1;whiteSpace=wrap;html=1;fontSize=15;fillColor=#d5e8d4;strokeColor=#82b366;" vertex="1" parent="TacVt2jKOgaLHGXAYxJc-5">
          <mxGeometry x="120" y="120" width="70" height="40" as="geometry" />
        </mxCell>
        <mxCell id="TacVt2jKOgaLHGXAYxJc-10" style="rounded=0;orthogonalLoop=1;jettySize=auto;html=1;fontSize=14;" edge="1" parent="TacVt2jKOgaLHGXAYxJc-5" source="TacVt2jKOgaLHGXAYxJc-7" target="TacVt2jKOgaLHGXAYxJc-9">
          <mxGeometry relative="1" as="geometry" />
        </mxCell>
        <mxCell id="TacVt2jKOgaLHGXAYxJc-11" value="任务划分" style="rounded=1;whiteSpace=wrap;html=1;fontSize=15;fillColor=#ffe6cc;strokeColor=#d79b00;" vertex="1" parent="TacVt2jKOgaLHGXAYxJc-5">
          <mxGeometry x="120" y="50" width="70" height="40" as="geometry" />
        </mxCell>
        <mxCell id="TacVt2jKOgaLHGXAYxJc-12" value="" style="endArrow=classic;html=1;rounded=0;horizontal=0;fontSize=15;" edge="1" parent="TacVt2jKOgaLHGXAYxJc-5" source="TacVt2jKOgaLHGXAYxJc-9" target="TacVt2jKOgaLHGXAYxJc-11">
          <mxGeometry width="50" height="50" relative="1" as="geometry">
            <mxPoint x="130" y="440" as="sourcePoint" />
            <mxPoint x="190" y="440" as="targetPoint" />
          </mxGeometry>
        </mxCell>
        <mxCell id="TacVt2jKOgaLHGXAYxJc-13" value="布局" style="rounded=1;whiteSpace=wrap;html=1;fontSize=15;fillColor=#ffe6cc;strokeColor=#d79b00;" vertex="1" parent="TacVt2jKOgaLHGXAYxJc-5">
          <mxGeometry x="220" y="50" width="70" height="40" as="geometry" />
        </mxCell>
        <mxCell id="TacVt2jKOgaLHGXAYxJc-14" value="" style="endArrow=classic;html=1;rounded=0;horizontal=0;fontSize=15;" edge="1" parent="TacVt2jKOgaLHGXAYxJc-5" source="TacVt2jKOgaLHGXAYxJc-11" target="TacVt2jKOgaLHGXAYxJc-13">
          <mxGeometry width="50" height="50" relative="1" as="geometry">
            <mxPoint x="260" y="440" as="sourcePoint" />
            <mxPoint x="310" y="440" as="targetPoint" />
          </mxGeometry>
        </mxCell>
        <mxCell id="TacVt2jKOgaLHGXAYxJc-15" value="布线" style="rounded=1;whiteSpace=wrap;html=1;fontSize=15;fillColor=#ffe6cc;strokeColor=#d79b00;" vertex="1" parent="TacVt2jKOgaLHGXAYxJc-5">
          <mxGeometry x="220" y="120" width="70" height="40" as="geometry" />
        </mxCell>
        <mxCell id="TacVt2jKOgaLHGXAYxJc-16" value="" style="endArrow=classic;html=1;rounded=0;horizontal=0;fontSize=15;" edge="1" parent="TacVt2jKOgaLHGXAYxJc-5" source="TacVt2jKOgaLHGXAYxJc-13" target="TacVt2jKOgaLHGXAYxJc-15">
          <mxGeometry width="50" height="50" relative="1" as="geometry">
            <mxPoint x="620" y="330" as="sourcePoint" />
            <mxPoint x="290" y="730" as="targetPoint" />
          </mxGeometry>
        </mxCell>
        <mxCell id="TacVt2jKOgaLHGXAYxJc-17" value="变量编址" style="rounded=1;whiteSpace=wrap;html=1;fontSize=15;fillColor=#ffe6cc;strokeColor=#d79b00;" vertex="1" parent="TacVt2jKOgaLHGXAYxJc-5">
          <mxGeometry x="320" y="120" width="70" height="40" as="geometry" />
        </mxCell>
        <mxCell id="TacVt2jKOgaLHGXAYxJc-18" style="edgeStyle=none;rounded=0;orthogonalLoop=1;jettySize=auto;html=1;fontSize=14;" edge="1" parent="TacVt2jKOgaLHGXAYxJc-5" source="TacVt2jKOgaLHGXAYxJc-15" target="TacVt2jKOgaLHGXAYxJc-17">
          <mxGeometry relative="1" as="geometry" />
        </mxCell>
        <mxCell id="TacVt2jKOgaLHGXAYxJc-19" value="代码生成" style="rounded=1;whiteSpace=wrap;html=1;fontSize=15;fillColor=#d5e8d4;strokeColor=#82b366;" vertex="1" parent="TacVt2jKOgaLHGXAYxJc-5">
          <mxGeometry x="320" y="50" width="70" height="40" as="geometry" />
        </mxCell>
        <mxCell id="TacVt2jKOgaLHGXAYxJc-20" style="edgeStyle=none;rounded=0;orthogonalLoop=1;jettySize=auto;html=1;fontSize=14;" edge="1" parent="TacVt2jKOgaLHGXAYxJc-5" source="TacVt2jKOgaLHGXAYxJc-17" target="TacVt2jKOgaLHGXAYxJc-19">
          <mxGeometry relative="1" as="geometry" />
        </mxCell>
        <mxCell id="TacVt2jKOgaLHGXAYxJc-21" value="Schd&lt;br&gt;C++" style="shape=note;whiteSpace=wrap;html=1;backgroundOutline=1;darkOpacity=0.05;size=20;fontSize=14;fillColor=#cce5ff;strokeColor=#36393d;fontStyle=1" vertex="1" parent="1">
          <mxGeometry x="317" y="251" width="70" height="70" as="geometry" />
        </mxCell>
        <mxCell id="TacVt2jKOgaLHGXAYxJc-22" value="Calc&lt;br&gt;C++" style="shape=note;whiteSpace=wrap;html=1;backgroundOutline=1;darkOpacity=0.05;size=20;fontSize=14;fillColor=#b1ddf0;strokeColor=#10739e;fontStyle=1" vertex="1" parent="1">
          <mxGeometry x="487" y="236" width="70" height="60" as="geometry" />
        </mxCell>
        <mxCell id="TacVt2jKOgaLHGXAYxJc-23" value="Calc&lt;br&gt;C++" style="shape=note;whiteSpace=wrap;html=1;backgroundOutline=1;darkOpacity=0.05;size=20;fontSize=14;fillColor=#b1ddf0;strokeColor=#10739e;fontStyle=1" vertex="1" parent="1">
          <mxGeometry x="477" y="246" width="70" height="60" as="geometry" />
        </mxCell>
        <mxCell id="TacVt2jKOgaLHGXAYxJc-24" value="Calc&lt;br&gt;C++" style="shape=note;whiteSpace=wrap;html=1;backgroundOutline=1;darkOpacity=0.05;size=20;fontSize=14;fillColor=#b1ddf0;strokeColor=#10739e;fontStyle=1" vertex="1" parent="1">
          <mxGeometry x="467" y="256" width="70" height="60" as="geometry" />
        </mxCell>
        <mxCell id="TacVt2jKOgaLHGXAYxJc-25" value="Calc&lt;br&gt;C++" style="shape=note;whiteSpace=wrap;html=1;backgroundOutline=1;darkOpacity=0.05;size=20;fontSize=14;fillColor=#b1ddf0;strokeColor=#10739e;fontStyle=1" vertex="1" parent="1">
          <mxGeometry x="457" y="266" width="70" height="60" as="geometry" />
        </mxCell>
        <mxCell id="TacVt2jKOgaLHGXAYxJc-26" value="扣板" style="swimlane;fontSize=14;fillColor=#ffcd28;gradientColor=#ffa500;strokeColor=#d79b00;" vertex="1" parent="1">
          <mxGeometry x="52" y="461" width="200" height="120" as="geometry" />
        </mxCell>
        <mxCell id="TacVt2jKOgaLHGXAYxJc-27" value="UniBench&lt;br&gt;EXE" style="rounded=1;whiteSpace=wrap;html=1;fontSize=14;fillColor=#bac8d3;strokeColor=#23445d;" vertex="1" parent="TacVt2jKOgaLHGXAYxJc-26">
          <mxGeometry x="10" y="50" width="80" height="50" as="geometry" />
        </mxCell>
        <mxCell id="TacVt2jKOgaLHGXAYxJc-28" value="SC Inst&lt;br&gt;.so" style="rounded=1;whiteSpace=wrap;html=1;fontSize=14;fillColor=#fad7ac;strokeColor=#b46504;" vertex="1" parent="TacVt2jKOgaLHGXAYxJc-26">
          <mxGeometry x="110" y="50" width="80" height="50" as="geometry" />
        </mxCell>
        <mxCell id="TacVt2jKOgaLHGXAYxJc-29" value="SC&lt;br&gt;Top" style="shape=note;whiteSpace=wrap;html=1;backgroundOutline=1;darkOpacity=0.05;size=20;fontSize=14;fillColor=#fad7ac;strokeColor=#b46504;fontStyle=1" vertex="1" parent="1">
          <mxGeometry x="167" y="251" width="70" height="70" as="geometry" />
        </mxCell>
        <mxCell id="TacVt2jKOgaLHGXAYxJc-30" value="CPU阵列" style="swimlane;fontSize=14;fillColor=#fff2cc;gradientColor=#ffd966;strokeColor=#d6b656;" vertex="1" parent="1">
          <mxGeometry x="292" y="461" width="300" height="140" as="geometry" />
        </mxCell>
        <mxCell id="TacVt2jKOgaLHGXAYxJc-31" value="Schd Core&lt;br&gt;Hex" style="rounded=1;whiteSpace=wrap;html=1;fontSize=14;fillColor=#cce5ff;strokeColor=#36393d;" vertex="1" parent="TacVt2jKOgaLHGXAYxJc-30">
          <mxGeometry x="30" y="43.75" width="60" height="65" as="geometry" />
        </mxCell>
        <mxCell id="TacVt2jKOgaLHGXAYxJc-32" value="Calc Core&lt;br&gt;Hex" style="rounded=1;whiteSpace=wrap;html=1;fontSize=14;fillColor=#b1ddf0;strokeColor=#10739e;" vertex="1" parent="TacVt2jKOgaLHGXAYxJc-30">
          <mxGeometry x="195" y="36.25" width="60" height="65" as="geometry" />
        </mxCell>
        <mxCell id="TacVt2jKOgaLHGXAYxJc-33" value="Calc Core&lt;br&gt;Hex" style="rounded=1;whiteSpace=wrap;html=1;fontSize=14;fillColor=#b1ddf0;strokeColor=#10739e;" vertex="1" parent="TacVt2jKOgaLHGXAYxJc-30">
          <mxGeometry x="190" y="43.75" width="60" height="65" as="geometry" />
        </mxCell>
        <mxCell id="TacVt2jKOgaLHGXAYxJc-34" value="Calc Core&lt;br&gt;Hex" style="rounded=1;whiteSpace=wrap;html=1;fontSize=14;fillColor=#b1ddf0;strokeColor=#10739e;" vertex="1" parent="TacVt2jKOgaLHGXAYxJc-30">
          <mxGeometry x="180" y="53.75" width="60" height="65" as="geometry" />
        </mxCell>
        <mxCell id="TacVt2jKOgaLHGXAYxJc-35" value="Calc Core&lt;br&gt;Hex" style="rounded=1;whiteSpace=wrap;html=1;fontSize=14;fillColor=#b1ddf0;strokeColor=#10739e;" vertex="1" parent="TacVt2jKOgaLHGXAYxJc-30">
          <mxGeometry x="170" y="63.75" width="60" height="65" as="geometry" />
        </mxCell>
        <mxCell id="TacVt2jKOgaLHGXAYxJc-36" value="ARM&lt;br&gt;GCC" style="label;whiteSpace=wrap;html=1;image=img/clipart/Gear_128x128.png;align=center;fontFamily=Times New Roman;fontSize=14;fillColor=#f5f5f5;strokeColor=#666666;gradientColor=#b3b3b3;" vertex="1" parent="1">
          <mxGeometry x="147" y="371" width="110" height="60" as="geometry" />
        </mxCell>
        <mxCell id="TacVt2jKOgaLHGXAYxJc-37" style="edgeStyle=orthogonalEdgeStyle;rounded=0;orthogonalLoop=1;jettySize=auto;html=1;fontSize=14;entryX=0.5;entryY=0;entryDx=0;entryDy=0;entryPerimeter=0;" edge="1" parent="1" source="TacVt2jKOgaLHGXAYxJc-5" target="TacVt2jKOgaLHGXAYxJc-21">
          <mxGeometry relative="1" as="geometry">
            <mxPoint x="361.9999999999998" y="221" as="sourcePoint" />
            <mxPoint x="212" y="261" as="targetPoint" />
          </mxGeometry>
        </mxCell>
        <mxCell id="TacVt2jKOgaLHGXAYxJc-38" style="edgeStyle=orthogonalEdgeStyle;rounded=0;orthogonalLoop=1;jettySize=auto;html=1;fontSize=14;" edge="1" parent="1" source="TacVt2jKOgaLHGXAYxJc-5" target="TacVt2jKOgaLHGXAYxJc-23">
          <mxGeometry relative="1" as="geometry">
            <mxPoint x="362" y="221" as="sourcePoint" />
            <mxPoint x="362" y="261" as="targetPoint" />
          </mxGeometry>
        </mxCell>
        <mxCell id="TacVt2jKOgaLHGXAYxJc-39" style="edgeStyle=orthogonalEdgeStyle;rounded=0;orthogonalLoop=1;jettySize=auto;html=1;fontSize=14;entryX=0.25;entryY=0;entryDx=0;entryDy=0;" edge="1" parent="1" source="TacVt2jKOgaLHGXAYxJc-21" target="TacVt2jKOgaLHGXAYxJc-3">
          <mxGeometry relative="1" as="geometry">
            <mxPoint x="361.9999999999998" y="221" as="sourcePoint" />
            <mxPoint x="521.9999999999998" y="256" as="targetPoint" />
          </mxGeometry>
        </mxCell>
        <mxCell id="TacVt2jKOgaLHGXAYxJc-40" style="edgeStyle=orthogonalEdgeStyle;rounded=0;orthogonalLoop=1;jettySize=auto;html=1;fontSize=14;" edge="1" parent="1" source="TacVt2jKOgaLHGXAYxJc-29" target="TacVt2jKOgaLHGXAYxJc-36">
          <mxGeometry relative="1" as="geometry">
            <mxPoint x="362.0344827586207" y="331" as="sourcePoint" />
            <mxPoint x="432.0344827586207" y="381" as="targetPoint" />
          </mxGeometry>
        </mxCell>
        <mxCell id="TacVt2jKOgaLHGXAYxJc-41" style="edgeStyle=orthogonalEdgeStyle;rounded=0;orthogonalLoop=1;jettySize=auto;html=1;fontSize=14;" edge="1" parent="1" source="TacVt2jKOgaLHGXAYxJc-36" target="TacVt2jKOgaLHGXAYxJc-28">
          <mxGeometry relative="1" as="geometry">
            <mxPoint x="212.0344827586207" y="331" as="sourcePoint" />
            <mxPoint x="187" y="381" as="targetPoint" />
          </mxGeometry>
        </mxCell>
        <mxCell id="TacVt2jKOgaLHGXAYxJc-42" style="edgeStyle=orthogonalEdgeStyle;rounded=0;orthogonalLoop=1;jettySize=auto;html=1;fontSize=14;entryX=0.75;entryY=0;entryDx=0;entryDy=0;" edge="1" parent="1" source="TacVt2jKOgaLHGXAYxJc-25" target="TacVt2jKOgaLHGXAYxJc-3">
          <mxGeometry relative="1" as="geometry">
            <mxPoint x="362.0344827586207" y="331" as="sourcePoint" />
            <mxPoint x="432.0344827586207" y="381" as="targetPoint" />
          </mxGeometry>
        </mxCell>
        <mxCell id="TacVt2jKOgaLHGXAYxJc-43" style="edgeStyle=orthogonalEdgeStyle;rounded=0;orthogonalLoop=1;jettySize=auto;html=1;fontSize=14;exitX=0.25;exitY=1;exitDx=0;exitDy=0;" edge="1" parent="1" source="TacVt2jKOgaLHGXAYxJc-3" target="TacVt2jKOgaLHGXAYxJc-31">
          <mxGeometry relative="1" as="geometry">
            <mxPoint x="502.0344827586207" y="336" as="sourcePoint" />
            <mxPoint x="432.0344827586207" y="381" as="targetPoint" />
          </mxGeometry>
        </mxCell>
        <mxCell id="TacVt2jKOgaLHGXAYxJc-44" style="edgeStyle=orthogonalEdgeStyle;rounded=0;orthogonalLoop=1;jettySize=auto;html=1;fontSize=14;exitX=0.75;exitY=1;exitDx=0;exitDy=0;" edge="1" parent="1" source="TacVt2jKOgaLHGXAYxJc-3" target="TacVt2jKOgaLHGXAYxJc-33">
          <mxGeometry relative="1" as="geometry">
            <mxPoint x="502.0344827586207" y="336" as="sourcePoint" />
            <mxPoint x="459.5" y="381" as="targetPoint" />
          </mxGeometry>
        </mxCell>
        <mxCell id="TacVt2jKOgaLHGXAYxJc-45" style="edgeStyle=none;rounded=0;orthogonalLoop=1;jettySize=auto;html=1;exitX=0.5;exitY=1;exitDx=0;exitDy=0;fontSize=14;startArrow=classic;startFill=1;dashed=1;" edge="1" parent="1" source="TacVt2jKOgaLHGXAYxJc-46" target="TacVt2jKOgaLHGXAYxJc-47">
          <mxGeometry relative="1" as="geometry" />
        </mxCell>
        <mxCell id="TacVt2jKOgaLHGXAYxJc-46" value="ALU" style="rounded=1;whiteSpace=wrap;html=1;fontSize=14;fillColor=#dae8fc;gradientColor=#7ea6e0;strokeColor=#6c8ebf;" vertex="1" parent="1">
          <mxGeometry x="702" y="51" width="100" height="60" as="geometry" />
        </mxCell>
        <mxCell id="TacVt2jKOgaLHGXAYxJc-47" value="MEM" style="rounded=1;whiteSpace=wrap;html=1;fontSize=14;fillColor=#e6d0de;gradientColor=#d5739d;strokeColor=#996185;" vertex="1" parent="1">
          <mxGeometry x="702" y="155" width="100" height="60" as="geometry" />
        </mxCell>
        <mxCell id="TacVt2jKOgaLHGXAYxJc-48" value="lui" style="rounded=0;whiteSpace=wrap;html=1;fontSize=14;fillColor=#dae8fc;strokeColor=#6c8ebf;" vertex="1" parent="1">
          <mxGeometry x="842" y="51" width="140" height="20" as="geometry" />
        </mxCell>
        <mxCell id="TacVt2jKOgaLHGXAYxJc-49" value="0x0" style="text;html=1;strokeColor=none;fillColor=none;align=center;verticalAlign=middle;whiteSpace=wrap;rounded=0;fontSize=14;" vertex="1" parent="1">
          <mxGeometry x="987" y="41" width="30" height="20" as="geometry" />
        </mxCell>
        <mxCell id="TacVt2jKOgaLHGXAYxJc-50" value="0x5000" style="text;html=1;strokeColor=none;fillColor=none;align=center;verticalAlign=middle;whiteSpace=wrap;rounded=0;fontSize=14;" vertex="1" parent="1">
          <mxGeometry x="992" y="181" width="40" height="20" as="geometry" />
        </mxCell>
        <mxCell id="TacVt2jKOgaLHGXAYxJc-51" value="代码段" style="text;html=1;strokeColor=none;fillColor=none;align=center;verticalAlign=middle;whiteSpace=wrap;rounded=0;fontSize=14;" vertex="1" parent="1">
          <mxGeometry x="1017" y="111" width="50" height="20" as="geometry" />
        </mxCell>
        <mxCell id="TacVt2jKOgaLHGXAYxJc-52" value="addi" style="rounded=0;whiteSpace=wrap;html=1;fontSize=14;fillColor=#dae8fc;strokeColor=#6c8ebf;" vertex="1" parent="1">
          <mxGeometry x="842" y="71" width="140" height="20" as="geometry" />
        </mxCell>
        <mxCell id="TacVt2jKOgaLHGXAYxJc-53" value="sw" style="rounded=0;whiteSpace=wrap;html=1;fontSize=14;fillColor=#dae8fc;strokeColor=#6c8ebf;" vertex="1" parent="1">
          <mxGeometry x="842" y="91" width="140" height="20" as="geometry" />
        </mxCell>
        <mxCell id="TacVt2jKOgaLHGXAYxJc-54" value="auipc" style="rounded=0;whiteSpace=wrap;html=1;fontSize=14;fillColor=#dae8fc;strokeColor=#6c8ebf;" vertex="1" parent="1">
          <mxGeometry x="842" y="111" width="140" height="20" as="geometry" />
        </mxCell>
        <mxCell id="TacVt2jKOgaLHGXAYxJc-55" value="jal" style="rounded=0;whiteSpace=wrap;html=1;fontSize=14;fillColor=#dae8fc;strokeColor=#6c8ebf;" vertex="1" parent="1">
          <mxGeometry x="842" y="131" width="140" height="20" as="geometry" />
        </mxCell>
        <mxCell id="TacVt2jKOgaLHGXAYxJc-56" value="bnez" style="rounded=0;whiteSpace=wrap;html=1;fontSize=14;fillColor=#dae8fc;strokeColor=#6c8ebf;" vertex="1" parent="1">
          <mxGeometry x="842" y="151" width="140" height="20" as="geometry" />
        </mxCell>
        <mxCell id="TacVt2jKOgaLHGXAYxJc-57" value="... ..." style="rounded=0;whiteSpace=wrap;html=1;fontSize=14;fillColor=#dae8fc;strokeColor=#6c8ebf;" vertex="1" parent="1">
          <mxGeometry x="842" y="171" width="140" height="20" as="geometry" />
        </mxCell>
        <mxCell id="TacVt2jKOgaLHGXAYxJc-58" value="clk" style="rounded=0;whiteSpace=wrap;html=1;fontSize=14;fillColor=#d5e8d4;strokeColor=#82b366;" vertex="1" parent="1">
          <mxGeometry x="842" y="191" width="140" height="20" as="geometry" />
        </mxCell>
        <mxCell id="TacVt2jKOgaLHGXAYxJc-59" value="rst_n" style="rounded=0;whiteSpace=wrap;html=1;fontSize=14;fillColor=#d5e8d4;strokeColor=#82b366;" vertex="1" parent="1">
          <mxGeometry x="842" y="211" width="140" height="20" as="geometry" />
        </mxCell>
        <mxCell id="TacVt2jKOgaLHGXAYxJc-60" value="mode" style="rounded=0;whiteSpace=wrap;html=1;fontSize=14;fillColor=#d5e8d4;strokeColor=#82b366;" vertex="1" parent="1">
          <mxGeometry x="842" y="231" width="140" height="20" as="geometry" />
        </mxCell>
        <mxCell id="TacVt2jKOgaLHGXAYxJc-61" value="... ..." style="rounded=0;whiteSpace=wrap;html=1;fontSize=14;fillColor=#d5e8d4;strokeColor=#82b366;" vertex="1" parent="1">
          <mxGeometry x="842" y="251" width="140" height="20" as="geometry" />
        </mxCell>
        <mxCell id="TacVt2jKOgaLHGXAYxJc-62" value="" style="shape=curlyBracket;whiteSpace=wrap;html=1;rounded=1;flipH=1;fontSize=14;" vertex="1" parent="1">
          <mxGeometry x="992" y="61" width="20" height="120" as="geometry" />
        </mxCell>
        <mxCell id="TacVt2jKOgaLHGXAYxJc-63" value="" style="shape=curlyBracket;whiteSpace=wrap;html=1;rounded=1;flipH=1;fontSize=14;" vertex="1" parent="1">
          <mxGeometry x="992" y="201" width="20" height="60" as="geometry" />
        </mxCell>
        <mxCell id="TacVt2jKOgaLHGXAYxJc-64" value="静态数据段" style="text;html=1;strokeColor=none;fillColor=none;align=center;verticalAlign=middle;whiteSpace=wrap;rounded=0;fontSize=14;" vertex="1" parent="1">
          <mxGeometry x="1012" y="221" width="80" height="20" as="geometry" />
        </mxCell>
        <mxCell id="TacVt2jKOgaLHGXAYxJc-65" value="... ..." style="rounded=0;whiteSpace=wrap;html=1;fontSize=14;fillColor=#ffe6cc;strokeColor=#d79b00;" vertex="1" parent="1">
          <mxGeometry x="842" y="271" width="140" height="70" as="geometry" />
        </mxCell>
        <mxCell id="TacVt2jKOgaLHGXAYxJc-66" value="" style="shape=curlyBracket;whiteSpace=wrap;html=1;rounded=1;flipH=1;fontSize=14;" vertex="1" parent="1">
          <mxGeometry x="992" y="276" width="20" height="60" as="geometry" />
        </mxCell>
        <mxCell id="TacVt2jKOgaLHGXAYxJc-67" value="栈" style="text;html=1;strokeColor=none;fillColor=none;align=center;verticalAlign=middle;whiteSpace=wrap;rounded=0;fontSize=14;" vertex="1" parent="1">
          <mxGeometry x="1012" y="296" width="50" height="20" as="geometry" />
        </mxCell>
        <mxCell id="TacVt2jKOgaLHGXAYxJc-68" style="rounded=0;orthogonalLoop=1;jettySize=auto;html=1;exitX=0.5;exitY=1;exitDx=0;exitDy=0;fontSize=14;entryX=0.5;entryY=0.571;entryDx=0;entryDy=0;entryPerimeter=0;" edge="1" parent="1" source="TacVt2jKOgaLHGXAYxJc-65" target="TacVt2jKOgaLHGXAYxJc-65">
          <mxGeometry relative="1" as="geometry">
            <mxPoint x="922" y="381" as="targetPoint" />
          </mxGeometry>
        </mxCell>
        <mxCell id="TacVt2jKOgaLHGXAYxJc-69" value="" style="endArrow=none;html=1;rounded=0;fontSize=14;" edge="1" parent="1">
          <mxGeometry width="50" height="50" relative="1" as="geometry">
            <mxPoint x="802" y="151" as="sourcePoint" />
            <mxPoint x="832" y="61" as="targetPoint" />
          </mxGeometry>
        </mxCell>
        <mxCell id="TacVt2jKOgaLHGXAYxJc-70" value="" style="endArrow=none;html=1;rounded=0;fontSize=14;" edge="1" parent="1">
          <mxGeometry width="50" height="50" relative="1" as="geometry">
            <mxPoint x="832" y="331" as="sourcePoint" />
            <mxPoint x="802" y="221" as="targetPoint" />
          </mxGeometry>
        </mxCell>
        <mxCell id="TacVt2jKOgaLHGXAYxJc-71" value="0xA000" style="text;html=1;strokeColor=none;fillColor=none;align=center;verticalAlign=middle;whiteSpace=wrap;rounded=0;fontSize=14;" vertex="1" parent="1">
          <mxGeometry x="992" y="258" width="40" height="20" as="geometry" />
        </mxCell>
        <mxCell id="TacVt2jKOgaLHGXAYxJc-72" value="0x10000" style="text;html=1;strokeColor=none;fillColor=none;align=center;verticalAlign=middle;whiteSpace=wrap;rounded=0;fontSize=14;" vertex="1" parent="1">
          <mxGeometry x="992" y="336" width="40" height="20" as="geometry" />
        </mxCell>
      </root>
    </mxGraphModel>
  </diagram>
</mxfile>
